<?xml version="1.0" encoding="utf-8"?>
<!-- Generator: Adobe Illustrator 16.0.0, SVG Export Plug-In . SVG Version: 6.00 Build 0)  -->
<!DOCTYPE svg PUBLIC "-//W3C//DTD SVG 1.1//EN" "http://www.w3.org/Graphics/SVG/1.1/DTD/svg11.dtd">
<svg version="1.1" id="Layer_1" xmlns="http://www.w3.org/2000/svg" xmlns:xlink="http://www.w3.org/1999/xlink" x="0px" y="0px"
	 width="67px" height="101px" viewBox="0 0 67 101" enable-background="new 0 0 67 101" xml:space="preserve">
<polyline fill="#343333" points="65.578,38.664 0,76.271 0,101.13 67.131,63.369 66.131,38.788 "/>
<polygon opacity="0.25" fill="#020202" points="67.131,63.357 35.821,55.729 46.406,49.632 "/>
<polygon fill="#FFFFFF" points="0,25.594 0,0 67.131,38.496 67.131,63.357 "/>
<g>
	<path fill="#FFFFFF" d="M6.333,79.018l1.387-0.791l3.953,4.963c0.253,0.316,0.479,0.623,0.678,0.917
		c0.199,0.294,0.388,0.598,0.567,0.911l0.094,0.166c-0.217-0.411-0.413-0.8-0.587-1.171c-0.175-0.369-0.321-0.703-0.44-1.001
		l-2.286-5.914l1.394-0.794l3.619,10.128l-1.482,0.846L6.333,79.018z"/>
	<path fill="#FFFFFF" d="M13.565,77.709c-0.414-0.725-0.542-1.405-0.381-2.042c0.159-0.637,0.587-1.153,1.282-1.55
		c0.658-0.375,1.3-0.461,1.924-0.258c0.625,0.203,1.145,0.67,1.561,1.398l2.689,4.715c0.459,0.806,0.624,1.535,0.494,2.188
		c-0.131,0.653-0.546,1.18-1.246,1.579c-0.707,0.403-1.371,0.494-1.99,0.271s-1.168-0.752-1.645-1.588L13.565,77.709z M19.35,81.096
		l-2.929-5.135c-0.182-0.317-0.379-0.521-0.593-0.609s-0.441-0.064-0.684,0.073c-0.241,0.138-0.378,0.321-0.411,0.551
		c-0.031,0.229,0.042,0.503,0.224,0.821l2.929,5.134c0.182,0.318,0.381,0.522,0.596,0.613s0.442,0.067,0.685-0.07
		c0.241-0.138,0.378-0.322,0.409-0.554S19.532,81.414,19.35,81.096z"/>
	<path fill="#FFFFFF" d="M18.545,73.814l-0.759-1.329l4.364-2.489l0.759,1.329l-1.477,0.842l4.489,7.87l-1.419,0.809l-4.489-7.869
		L18.545,73.814z"/>
	<path fill="#FFFFFF" d="M28.64,78.486l-5.248-9.199l3.704-2.112l0.759,1.329l-2.284,1.304l1.375,2.411l1.646-0.938l0.759,1.329
		l-1.646,0.938l1.567,2.749l2.284-1.303l0.788,1.38L28.64,78.486z"/>
	<path fill="#FFFFFF" d="M34.229,75.3l-3.499-6.133l2.464-1.405l0.505,0.887l-1.518,0.865l0.917,1.607l1.095-0.624l0.504,0.886
		l-1.094,0.625l1.57,2.752L34.229,75.3z"/>
	<path fill="#FFFFFF" d="M34.803,68.721c-0.275-0.483-0.359-0.938-0.254-1.361c0.107-0.425,0.391-0.769,0.855-1.033
		c0.439-0.25,0.865-0.308,1.283-0.172c0.414,0.135,0.762,0.446,1.039,0.933l1.793,3.143c0.307,0.537,0.416,1.023,0.328,1.46
		c-0.086,0.436-0.363,0.786-0.828,1.053c-0.473,0.27-0.916,0.329-1.328,0.18c-0.412-0.148-0.779-0.501-1.096-1.058L34.803,68.721z
		 M38.66,70.979l-1.953-3.422c-0.121-0.213-0.252-0.349-0.395-0.407c-0.145-0.06-0.295-0.043-0.455,0.049
		c-0.162,0.092-0.254,0.214-0.275,0.367s0.029,0.335,0.15,0.547l1.951,3.423c0.121,0.212,0.254,0.349,0.396,0.409
		c0.145,0.061,0.297,0.045,0.457-0.047c0.162-0.092,0.252-0.215,0.273-0.369C38.83,71.374,38.781,71.191,38.66,70.979z"/>
	<path fill="#FFFFFF" d="M41.207,67.9l1.471,2.579l-0.945,0.54l-3.498-6.133l1.387-0.792c0.52-0.296,0.977-0.371,1.367-0.224
		c0.393,0.148,0.766,0.533,1.119,1.155c0.221,0.385,0.352,0.722,0.393,1.013c0.043,0.291,0,0.57-0.129,0.838l2.322,2.453
		l-0.98,0.559l-2.057-2.244L41.207,67.9z M39.686,65.233l1.016,1.781l0.373-0.213c0.219-0.124,0.332-0.276,0.342-0.456
		s-0.086-0.448-0.289-0.805c-0.186-0.322-0.357-0.52-0.516-0.592c-0.158-0.071-0.355-0.041-0.586,0.091L39.686,65.233z"/>
	<path fill="#FFFFFF" d="M43.166,62.072l0.967-0.551l2.711,4.75c0.102,0.178,0.229,0.294,0.381,0.348s0.303,0.037,0.453-0.048
		c0.15-0.086,0.238-0.204,0.262-0.357c0.025-0.153-0.014-0.32-0.115-0.501l-2.711-4.751l0.963-0.549l2.615,4.585
		c0.309,0.54,0.42,1.026,0.336,1.459c-0.086,0.433-0.361,0.782-0.828,1.048c-0.473,0.27-0.916,0.33-1.334,0.182
		c-0.414-0.149-0.781-0.5-1.098-1.054L43.166,62.072z"/>
	<path fill="#FFFFFF" d="M49.793,64.359l0.826-0.651c0.193,0.301,0.385,0.497,0.57,0.587c0.188,0.091,0.379,0.079,0.578-0.033
		c0.172-0.099,0.281-0.232,0.326-0.402c0.045-0.172,0.018-0.345-0.084-0.523c-0.182-0.319-0.672-0.587-1.471-0.803
		c-0.063-0.017-0.109-0.029-0.139-0.038c-0.783-0.214-1.32-0.414-1.613-0.601c-0.295-0.187-0.527-0.43-0.697-0.729
		c-0.246-0.433-0.313-0.878-0.197-1.335c0.115-0.458,0.379-0.804,0.789-1.037c0.398-0.228,0.803-0.277,1.213-0.15
		c0.41,0.128,0.766,0.415,1.068,0.86l-0.848,0.659c-0.174-0.265-0.336-0.434-0.482-0.507c-0.15-0.072-0.307-0.062-0.475,0.034
		c-0.152,0.087-0.244,0.208-0.277,0.363c-0.033,0.156-0.002,0.32,0.098,0.492c0.203,0.357,0.766,0.652,1.686,0.888
		c0.037,0.01,0.064,0.019,0.088,0.024c0.676,0.176,1.16,0.359,1.449,0.55c0.289,0.191,0.529,0.454,0.719,0.787
		c0.256,0.447,0.326,0.893,0.213,1.338c-0.115,0.445-0.383,0.788-0.807,1.03c-0.469,0.268-0.928,0.33-1.375,0.188
		C50.506,65.207,50.119,64.877,49.793,64.359z"/>
</g>
<g>
	<path fill="#4C4C4C" d="M10.792,25.138l5.169-9.244l1.279,0.715l-1.28,6.535c-0.025,0.125-0.062,0.289-0.111,0.491
		c-0.048,0.202-0.103,0.418-0.164,0.646c0.103-0.295,0.203-0.563,0.301-0.81c0.098-0.244,0.177-0.42,0.236-0.526l2.942-5.261
		l1.336,0.748l-5.169,9.243l-1.336-0.747l1.118-6.081c0.003-0.025,0.011-0.063,0.021-0.113c0.076-0.416,0.156-0.769,0.239-1.058
		c-0.13,0.352-0.241,0.645-0.334,0.875s-0.167,0.395-0.221,0.492l-2.703,4.833L10.792,25.138z"/>
	<path fill="#4C4C4C" d="M21.312,21.688c0.407-0.729,0.924-1.189,1.553-1.381c0.626-0.192,1.29-0.092,1.989,0.299
		c0.66,0.369,1.064,0.874,1.213,1.514c0.149,0.64,0.019,1.326-0.392,2.059l-2.649,4.737c-0.453,0.81-0.993,1.327-1.62,1.553
		s-1.292,0.142-1.995-0.251c-0.711-0.398-1.132-0.92-1.261-1.565c-0.128-0.646,0.042-1.388,0.512-2.228L21.312,21.688z
		 M21.398,28.392l2.885-5.159c0.179-0.319,0.25-0.594,0.216-0.823c-0.035-0.229-0.173-0.411-0.416-0.547
		c-0.243-0.136-0.471-0.158-0.684-0.068c-0.213,0.092-0.409,0.297-0.588,0.616l-2.885,5.158c-0.179,0.32-0.251,0.596-0.218,0.827
		c0.033,0.23,0.171,0.414,0.414,0.55c0.243,0.136,0.471,0.157,0.686,0.064S21.22,28.711,21.398,28.392z"/>
	<path fill="#4C4C4C" d="M23.738,32.378l5.169-9.244l1.899,1.063l-1.936,5.639c-0.077,0.225-0.17,0.461-0.282,0.707
		c-0.113,0.244-0.239,0.492-0.379,0.744c0.119-0.213,0.254-0.427,0.404-0.639c0.149-0.213,0.315-0.433,0.499-0.66l3.759-4.637
		l1.925,1.076l-5.169,9.243l-1.336-0.747l3.264-5.836c0.093-0.167,0.229-0.385,0.404-0.656c0.177-0.27,0.378-0.568,0.605-0.895
		c-0.09,0.112-0.214,0.267-0.369,0.465c-0.3,0.375-0.495,0.616-0.587,0.721l-4.596,5.486l-0.709-0.396l2.323-6.766
		c0.096-0.271,0.201-0.567,0.317-0.889c0.115-0.322,0.178-0.502,0.188-0.541c-0.147,0.332-0.288,0.641-0.425,0.925
		c-0.137,0.285-0.264,0.531-0.38,0.74l-3.264,5.837L23.738,32.378z"/>
	<path fill="#4C4C4C" d="M31.803,36.888l5.169-9.244l1.451,0.813l-5.169,9.243L31.803,36.888z"/>
	<path fill="#4C4C4C" d="M35.406,38.902l5.169-9.243l1.278,0.715l-1.279,6.535c-0.025,0.125-0.063,0.289-0.111,0.491
		c-0.048,0.202-0.103,0.418-0.164,0.646c0.104-0.295,0.203-0.563,0.301-0.81c0.098-0.244,0.177-0.42,0.236-0.526l2.942-5.261
		l1.337,0.747l-5.17,9.244l-1.336-0.747l1.117-6.081c0.004-0.025,0.012-0.063,0.021-0.113c0.076-0.417,0.155-0.77,0.24-1.058
		c-0.13,0.353-0.242,0.645-0.335,0.874c-0.093,0.231-0.167,0.396-0.222,0.493l-2.702,4.833L35.406,38.902z"/>
	<path fill="#4C4C4C" d="M42.122,42.658l5.169-9.243l3.722,2.081l-0.747,1.336l-2.295-1.284l-1.355,2.424l1.653,0.924l-0.747,1.336
		l-1.653-0.924l-1.544,2.762l2.295,1.283l-0.775,1.387L42.122,42.658z"/>
	<path fill="#4C4C4C" d="M47.662,45.757l5.17-9.244l3.721,2.082l-0.747,1.336l-2.295-1.284l-1.355,2.423l1.653,0.925l-0.747,1.336
		l-1.653-0.925l-1.544,2.762l2.295,1.283l-0.775,1.388L47.662,45.757z"/>
</g>
</svg>
